<svg width="61" height="61" viewBox="0 0 61 61" fill="none" xmlns="http://www.w3.org/2000/svg">
<g clip-path="url(#clip0_99_7)">
<path d="M60.9998 30.6867C60.9998 13.7363 47.3434 -0.00390625 30.4998 -0.00390625C13.6486 -9.37497e-05 -0.0078125 13.7363 -0.0078125 30.6905C-0.0078125 46.0053 11.1476 58.701 25.7266 61.0037V39.5584H17.9872V30.6905H25.7342V23.9233C25.7342 16.2335 30.2901 11.9864 37.2556 11.9864C40.5953 11.9864 44.0837 12.585 44.0837 12.585V20.1337H40.2369C36.4511 20.1337 35.2693 22.5013 35.2693 24.9298V30.6867H43.7254L42.3757 39.5546H35.2654V60.9999C49.8444 58.6972 60.9998 46.0015 60.9998 30.6867Z" fill="white"/>
</g>
<defs>
<clipPath id="clip0_99_7">
<rect width="61" height="61" fill="white"/>
</clipPath>
</defs>
</svg>
