<svg width="52" height="52" viewBox="0 0 52 52" fill="none" xmlns="http://www.w3.org/2000/svg">
<g clip-path="url(#clip0_88_2)">
<path d="M26 0C18.9443 0 18.057 0.0325 15.2847 0.156C12.5125 0.286 10.6243 0.7215 8.97 1.365C7.23399 2.01606 5.66196 3.04004 4.36475 4.36475C3.04004 5.66196 2.01606 7.23399 1.365 8.97C0.7215 10.621 0.28275 12.5125 0.156 15.275C0.0325 18.0537 0 18.9378 0 26.0033C0 33.0623 0.0325 33.9463 0.156 36.7185C0.286 39.4875 0.7215 41.3757 1.365 43.03C2.03125 44.7395 2.9185 46.189 4.36475 47.6353C5.80775 49.0815 7.25725 49.972 8.96675 50.635C10.6243 51.2785 12.5093 51.7172 15.2783 51.844C18.0538 51.9675 18.9377 52 26 52C33.0623 52 33.943 51.9675 36.7185 51.844C39.4843 51.714 41.379 51.2785 43.0332 50.635C44.7681 49.9835 46.339 48.9596 47.6353 47.6353C49.0815 46.189 49.9688 44.7395 50.635 43.03C51.2752 41.3757 51.714 39.4875 51.844 36.7185C51.9675 33.9463 52 33.0623 52 26C52 18.9377 51.9675 18.0538 51.844 15.2783C51.714 12.5125 51.2752 10.621 50.635 8.97C49.9839 7.23399 48.96 5.66196 47.6353 4.36475C46.338 3.04004 44.766 2.01606 43.03 1.365C41.3725 0.7215 39.481 0.28275 36.7152 0.156C33.9398 0.0325 33.059 0 25.9935 0H26ZM23.6698 4.6865H26.0033C32.9453 4.6865 33.7675 4.70925 36.5072 4.836C39.0422 4.94975 40.4202 5.3755 41.3368 5.72975C42.549 6.201 43.4167 6.7665 44.3268 7.6765C45.2368 8.5865 45.799 9.451 46.2703 10.6665C46.6278 11.5798 47.0503 12.9578 47.164 15.4928C47.2907 18.2325 47.3167 19.0548 47.3167 25.9935C47.3167 32.9323 47.2907 33.7577 47.164 36.4975C47.0503 39.0325 46.6245 40.4072 46.2703 41.3237C45.8505 42.4512 45.1855 43.4713 44.3235 44.3105C43.4135 45.2205 42.549 45.7828 41.3335 46.254C40.4235 46.6115 39.0455 47.034 36.5072 47.151C33.7675 47.2745 32.9453 47.3037 26.0033 47.3037C19.0613 47.3037 18.2358 47.2745 15.496 47.151C12.961 47.034 11.5863 46.6115 10.6698 46.254C9.54146 45.8356 8.52019 45.1718 7.67975 44.3105C6.81614 43.4707 6.15007 42.4494 5.72975 41.3205C5.3755 40.4072 4.94975 39.0293 4.836 36.4943C4.7125 33.7545 4.6865 32.9323 4.6865 25.987C4.6865 19.0417 4.7125 18.226 4.836 15.4862C4.953 12.9513 5.3755 11.5732 5.733 10.6567C6.20425 9.4445 6.76975 8.57675 7.67975 7.66675C8.58975 6.75675 9.45425 6.1945 10.6698 5.72325C11.5863 5.36575 12.961 4.94325 15.496 4.82625C17.8945 4.71575 18.824 4.68325 23.6698 4.68V4.6865ZM39.8807 9.0025C39.471 9.0025 39.0653 9.0832 38.6868 9.24C38.3082 9.39679 37.9643 9.62661 37.6746 9.91633C37.3849 10.206 37.155 10.55 36.9982 10.9285C36.8414 11.3071 36.7607 11.7128 36.7607 12.1225C36.7607 12.5322 36.8414 12.9379 36.9982 13.3165C37.155 13.695 37.3849 14.039 37.6746 14.3287C37.9643 14.6184 38.3082 14.8482 38.6868 15.005C39.0653 15.1618 39.471 15.2425 39.8807 15.2425C40.7082 15.2425 41.5018 14.9138 42.0869 14.3287C42.672 13.7436 43.0008 12.95 43.0008 12.1225C43.0008 11.295 42.672 10.5014 42.0869 9.91633C41.5018 9.33121 40.7082 9.0025 39.8807 9.0025ZM26.0033 12.649C24.2322 12.6214 22.4734 12.9463 20.8292 13.605C19.185 14.2636 17.6882 15.2427 16.426 16.4854C15.1638 17.728 14.1614 19.2093 13.4772 20.8431C12.793 22.4768 12.4407 24.2304 12.4407 26.0016C12.4407 27.7729 12.793 29.5264 13.4772 31.1602C14.1614 32.7939 15.1638 34.2752 16.426 35.5179C17.6882 36.7605 19.185 37.7397 20.8292 38.3983C22.4734 39.0569 24.2322 39.3819 26.0033 39.3543C29.5085 39.2996 32.8517 37.8687 35.3112 35.3706C37.7707 32.8724 39.1492 29.5073 39.1492 26.0016C39.1492 22.4959 37.7707 19.1308 35.3112 16.6327C32.8517 14.1345 29.5085 12.7037 26.0033 12.649ZM26.0033 17.3323C27.1415 17.3323 28.2686 17.5564 29.3203 17.992C30.3719 18.4276 31.3274 19.0661 32.1323 19.871C32.9372 20.6758 33.5756 21.6314 34.0112 22.683C34.4468 23.7346 34.671 24.8617 34.671 26C34.671 27.1383 34.4468 28.2654 34.0112 29.317C33.5756 30.3686 32.9372 31.3242 32.1323 32.129C31.3274 32.9339 30.3719 33.5724 29.3203 34.008C28.2686 34.4436 27.1415 34.6678 26.0033 34.6677C23.7044 34.6677 21.4997 33.7545 19.8742 32.129C18.2487 30.5035 17.3355 28.2988 17.3355 26C17.3355 23.7012 18.2487 21.4965 19.8742 19.871C21.4997 18.2455 23.7044 17.3323 26.0033 17.3323Z" fill="white"/>
</g>
<defs>
<clipPath id="clip0_88_2">
<rect width="52" height="52" fill="white"/>
</clipPath>
</defs>
</svg>
